{"title":"The Adventures of Tintin 2011 BRRip XviD Ac3 Feel-Free","uid":7051570,"size":1636881906,"categoryP":"video","categoryS":"movies","magnet":"?xt=urn:btih:f9f36110e17c2186b9ec3519c98a760884d7eaff&amp;dn=The+Adventures+of+Tintin+2011+BRRip+XviD+Ac3+Feel-Free&amp;tr=udp%3A%2F%2Ftracker.openbittorrent.com%3A80&amp;tr=udp%3A%2F%2Fopen.demonii.com%3A1337&amp;tr=udp%3A%2F%2Ftracker.coppersurfer.tk%3A6969&amp;tr=udp%3A%2F%2Fexodus.desync.com%3A6969","seeders":0,"leechers":0,"uploader":".BONE.","files":8,"time":1329979057,"description":"Genre:Animation | Action | Adventure\nLanguage:English &lt;a href=&quot;\nhttp://www.imdb.com/title/tt0983193/&quot; rel=&quot;nofollow&quot; target=&quot;_NEW&quot;&gt;\nhttp://www.imdb.com/title/tt0983193/&lt;/a&gt;\nSource:1080p.BluRay.x264.MaxHD Thanks!\nEncoder:Tony\n\nFormat : AVI\nFormat/Info : Audio Video Interleave\nFile size : 1.52 GiB\nDuration : 1h 46mn\nOverall bit rate : 2 041 Kbps\n\nVideo\nID : 0\nFormat : MPEG-4 Visual\nFormat profile : Advanced Simple@L5\nFormat settings, BVOP : 1\nFormat settings, QPel : No\nFormat settings, GMC : No warppoints\nFormat settings, Matrix : Default (H.263)\nCodec ID : XVID\nCodec ID/Hint : XviD\nDuration : 1h 46mn\nBit rate : 1 583 Kbps\nWidth : 640 pixels\nHeight : 272 pixels\nDisplay aspect ratio : 2.35:1\nFrame rate : 23.976 fps\nColor space : YUV\nChroma subsampling : 4:2:0\nBit depth : 8 bits\nScan type : Progressive\nCompression mode : Lossy\nBits/(Pixel*Frame) : 0.379\nStream size : 1.18 GiB (78%)\nWriting library : XviD 1.2.1 (UTC 2008-12-04)\n\nAudio\nID : 1\nFormat : AC-3\nFormat/Info : Audio Coding 3\nMode extension : CM (complete main)\nCodec ID : 2000\nDuration : 1h 46mn\nBit rate mode : Constant\nBit rate : 448 Kbps\nChannel(s) : 6 channels\nChannel positions : Front: L C R, Side: L R, LFE\nSampling rate : 48.0 KHz\nBit depth : 16 bits\nCompression mode : Lossy\nStream size : 342 MiB (22%)\nAlignment : Aligned on interleaves\nInterleave, duration : 42 ms (1.00 video frame)\nInterleave, preload duration : 512 ms\n\n\nPlot:\nIntrepid reporter Tintin and Captain Haddock set off on a treasure hunt for a sunken ship commanded by Haddock's ancestor.\n\n &lt;a href=&quot;\nhttp://imgcrave.com/u/7BqN6.png&quot; rel=&quot;nofollow&quot; target=&quot;_NEW&quot;&gt;\nhttp://imgcrave.com/u/7BqN6.png&lt;/a&gt; &lt;a href=&quot;\nhttp://imgcrave.com/u/VcpPb.png&quot; rel=&quot;nofollow&quot; target=&quot;_NEW&quot;&gt;\nhttp://imgcrave.com/u/VcpPb.png&lt;/a&gt; &lt;a href=&quot;\nhttp://imgcrave.com/u/CeYZ.png&quot; rel=&quot;nofollow&quot; target=&quot;_NEW&quot;&gt;\nhttp://imgcrave.com/u/CeYZ.png&lt;/a&gt; &lt;a href=&quot;\nhttp://imgcrave.com/u/e1ZdR.png&quot; rel=&quot;nofollow&quot; target=&quot;_NEW&quot;&gt;\nhttp://imgcrave.com/u/e1ZdR.png&lt;/a&gt;\n","torrent":{"xt":"urn:btih:f9f36110e17c2186b9ec3519c98a760884d7eaff","amp;dn":"The+Adventures+of+Tintin+2011+BRRip+XviD+Ac3+Feel-Free","amp;tr":["udp%3A%2F%2Ftracker.openbittorrent.com%3A80","udp%3A%2F%2Fopen.demonii.com%3A1337","udp%3A%2F%2Ftracker.coppersurfer.tk%3A6969","udp%3A%2F%2Fexodus.desync.com%3A6969"],"infoHash":"f9f36110e17c2186b9ec3519c98a760884d7eaff","infoHashBuffer":{"type":"Buffer","data":[249,243,97,16,225,124,33,134,185,236,53,25,201,138,118,8,132,215,234,255]},"announce":[],"urlList":[]}}